# xmcd
#
# Track frame offsets:
#	150
#	19705
#	41913
#	60565
#	78727
#	99940
#	117801
#	138150
#	156965
#	178699
#	196740
#	212679
#	230814
#	247282
#	263358
#	283511
#	300449
#	317183
#
# Disc length: 4442 seconds
#
# Revision: 0
# Processed by: cddbd v1.4PL0 Copyright (c) Steve Scherf et al.
# Submitted via: dBpowerAMP V4.0
#
DISCID=f7115812
DTITLE=elvis martines - tu sabes bien
DYEAR=1900
DGENRE=varios
TTITLE0=a
TTITLE1=b
TTITLE2=c
TTITLE3=d
TTITLE4=f
TTITLE5=g
TTITLE6=h
TTITLE7=i
TTITLE8=j
TTITLE9=k
TTITLE10=l
TTITLE11=m
TTITLE12=n
TTITLE13=o
TTITLE14=p
TTITLE15=q
TTITLE16=r
TTITLE17=s
EXTD=the artist is elvis martines\n
EXTT0=
EXTT1=
EXTT2=
EXTT3=
EXTT4=
EXTT5=
EXTT6=
EXTT7=
EXTT8=
EXTT9=
EXTT10=
EXTT11=
EXTT12=
EXTT13=
EXTT14=
EXTT15=
EXTT16=
EXTT17=
PLAYORDER=
